<svg width="34" height="34" viewBox="0 0 34 34" fill="none" xmlns="http://www.w3.org/2000/svg">
<path fill-rule="evenodd" clip-rule="evenodd" d="M7 17C7 16.4477 7.44772 16 8 16H26C26.5523 16 27 16.4477 27 17C27 17.5523 26.5523 18 26 18H8C7.44772 18 7 17.5523 7 17Z" fill="white"/>
<path fill-rule="evenodd" clip-rule="evenodd" d="M7 11C7 10.4477 7.44772 10 8 10H26C26.5523 10 27 10.4477 27 11C27 11.5523 26.5523 12 26 12H8C7.44772 12 7 11.5523 7 11Z" fill="white"/>
<path fill-rule="evenodd" clip-rule="evenodd" d="M7 23C7 22.4477 7.44772 22 8 22H26C26.5523 22 27 22.4477 27 23C27 23.5523 26.5523 24 26 24H8C7.44772 24 7 23.5523 7 23Z" fill="white"/>
</svg>
